<?xml version="1.0" encoding="utf-8" ?><svg xmlns="http://www.w3.org/2000/svg" xmlns:xlink="http://www.w3.org/1999/xlink" width="1024" height="1024" viewBox="0 0 1024 1024"><path d="M409.156 321.057C430.452 318.736 413.124 344.782 408.989 352.128C413.19 352.274 427.066 349.653 427.12 356.002C427.237 369.52 410.104 369.598 400.37 370.298C387.956 401.582 369.884 433.116 367.48 467.487C366.612 479.893 373.909 486.945 384.08 475.775C398.859 459.545 403.525 442.013 413.39 423.737C418.142 415.001 423.683 406.72 429.946 398.995C438.358 388.741 451.905 375.18 466.013 373.978C481.691 372.641 483.126 382.801 483.614 395.333C487.166 395.919 491.923 396.142 494.379 399.146C502.335 408.878 466.773 457.012 465.043 471.713C464.764 474.077 464.738 477.385 466.557 479.218C467.66 480.33 469.44 480.684 470.954 480.601C474.492 480.408 477.204 477.235 479.507 474.869C493.741 460.245 495.168 448.869 501.178 430.59C504.737 419.766 508.679 408.927 513.181 398.46C515.582 392.875 518.248 386.249 522.467 381.787C524.513 379.624 527.15 377.92 530.232 378.012C532.939 378.093 536.427 380.089 538.138 382.142C540.769 385.301 540.55 390.622 539.674 394.436C538.061 401.452 534.525 408.537 531.828 415.237C523.721 435.382 514.273 456.275 511.791 478.013C545.614 458.284 561.904 386.56 578.003 378.417C580.648 377.08 583.505 378.108 586.133 378.922C597.699 389.881 587.18 405.343 582.635 416.827C579.727 424.174 551.465 478.681 562.187 482.877C564.014 482.717 565.708 482.206 567.365 481.265C597.219 464.347 599.794 424.684 611.925 395.897C616.119 385.946 619.588 376.678 632.237 381.602C643.277 385.899 640.558 394.299 636.673 402.1C638.833 400.016 641.058 397.999 643.344 396.054C648.473 391.707 675.002 370.138 685.253 379.765C686.631 381.864 685.261 386.277 683.923 387.854C679.184 393.435 673.256 397.12 667.389 401.367C654.491 410.703 639.366 419.911 629.406 432.538C621.892 442.062 616.56 456.44 612.472 467.845C609.605 474.751 605.959 497.311 601.153 500.508C591.997 502.746 589.039 491.374 587.397 484.845C580.455 491.508 572.134 499.767 561.878 500.206C556.71 500.465 551.672 498.542 547.992 494.905C540.339 487.472 540.18 477.363 540.012 467.549C528.876 484.803 504.649 519.467 490.147 483.454C472.964 504.615 456.363 505.21 442.831 480.13C435.738 491.085 423.758 504.42 409.25 497.982C402.242 494.872 399.781 487.713 397.519 481.065C391.116 488.046 383.862 496.54 374.692 499.486C368.567 501.435 361.917 500.849 356.227 497.86C346.606 492.917 344.239 486.045 341.249 476.787C340.195 478.805 339.168 480.815 338.011 482.786C326.982 501.591 300.685 506.325 283.921 492.299C280.159 489.151 277.94 486.351 274.819 482.445C248.355 510.266 201.326 507.004 199.37 462.659C198.219 436.57 214.632 411.014 231.188 392.164C248.103 372.905 286.257 361.171 285.544 400.052C285.299 413.525 274.829 427.053 265.484 436.163C253.893 447.463 242.921 447.943 227.64 447.336C220.94 475.609 235.77 495.675 262.45 475.317C275.211 465.579 272.992 452.184 280.65 439.494C284.889 432.469 292.084 427.99 296.782 421.227C308.134 406.02 312.524 387.706 329.444 376.96C333.909 374.124 348.595 365.933 353.197 374.039C356.401 381.778 345.515 386.216 341.619 390.02C326.176 405.092 332.959 436.524 341.388 453.286L341.727 453.953C348.795 423.018 358.923 400.925 371.861 372.039C366.674 372.242 362.825 372.798 358.607 369.193C355.016 366.261 354.669 360.167 358.182 357.021C363.663 352.115 375.462 352.926 382.434 352.786C386.788 342.503 398.508 325.993 409.156 321.057ZM423.457 478.904C442.006 467.457 461.284 422.534 471.662 403.149C472.207 402.133 471.326 401.15 470.788 400.419C468.868 399.447 467.825 399.194 465.594 399.435C442.228 414.969 425.8 442.264 418.697 469.185C417.714 472.91 417.22 480.737 423.457 478.904ZM300.79 432.645C302.091 440.267 301.778 443.95 297.614 450.835C293.572 457.518 283.457 457.973 284.219 464.524C284.599 467.801 289.979 473.678 292.528 475.907C314.625 488.005 315.426 460.271 313.153 446.196C311.917 438.546 311.753 429.604 308.785 422.366C306.036 426.143 303.807 429.096 300.79 432.645ZM236.582 432.547C250.87 427.401 262.725 418.706 270.023 404.761C271.266 402.385 274.059 395.244 270.177 393.923C258.294 398.68 237.361 418.975 234.375 431.56L234.791 432.341L236.582 432.547Z"/><path d="M915.443 319.134C922.043 318.844 924.377 319.137 927.153 325.477C925.959 337.272 923.569 341.303 918.779 352.163C928.602 350.048 940.853 349.503 929.686 363.635C924.98 369.591 915.698 370.524 908.401 370.539C908.194 370.888 907.992 371.239 907.795 371.594C897.866 389.689 867.355 457.665 873.212 475.926C873.779 477.694 874.753 479.53 876.566 480.268C891.219 486.237 899.942 439.915 911.757 435.807C913.109 435.337 914.313 435.496 915.549 436.188C916.489 436.715 917.029 437.257 917.252 438.363C919.248 448.226 904.632 476.745 898.983 484.933C893.621 492.706 887.06 498.603 877.473 500.251C869.789 501.572 859.585 501.139 853.19 496.307C848.367 492.663 847.054 487.412 846.17 481.756C840.339 488.791 835.958 495.738 827.045 498.979C815.888 503.123 797.87 501.715 794.135 488.064C788.494 467.443 795.155 445.754 804.246 427.275C789.039 444.85 772.548 459.362 766.497 483.249C762.348 499.626 751.884 507.699 745.633 486.637C727.26 502.887 709.296 505.643 696.786 481.457C685.238 497.297 659.824 509.837 653.575 481.761C648.9 460.757 664.526 431.577 676.004 413.703C686.967 396.164 713.687 363.363 737.756 380.023C742.099 383.029 742.134 391.861 742.234 396.605C743.846 396.806 745.517 396.966 747.083 397.411C748.928 397.936 750.249 398.939 751.106 400.691C755.922 410.547 723.415 458.012 719.252 470.992C718.473 473.421 717.587 476.975 719.127 479.304C719.816 480.347 721.014 481.208 722.251 481.431C724.295 481.801 726.463 480.718 728.253 479.828C744.72 471.643 753.617 437.535 760.063 420.972C763.529 412.064 767.407 403.192 771.907 394.754C774.843 389.249 778.323 382.885 783.451 379.089C785.615 377.487 788.363 377.176 790.948 377.722C795.106 378.6 797.939 380.821 800.225 384.291C801.142 398.337 790.863 412.975 783.805 425.035C799.264 408.725 816.98 391.445 836.233 379.76C840.935 376.907 850.018 379.673 851.312 385.425C854.088 397.759 840.475 411.181 834.311 420.699C824.938 434.373 809.431 458.678 815.294 476.147C821.196 493.734 843.271 467.323 846.375 460.657C849.315 454.342 850.645 447.898 852.208 442.131C854.01 435.405 856.042 428.742 858.302 422.156C864.895 403.463 872.512 388.264 879.378 370.53C874.956 370.519 871.735 370.537 868.36 367.331C866.135 365.176 864.872 362.214 864.856 359.116C864.782 347.492 881.606 351.37 889.476 351.99C895.751 341.335 904.303 324.222 915.443 319.134ZM679.005 478.488C691.851 474.601 707.662 441.951 714.162 430.142C717.204 424.615 727.961 405.929 726.731 400.702C725.081 398.763 724.087 398.717 721.627 398.522C698.829 411.833 682.005 441.529 674.537 466.309C672.906 471.719 672.749 476.754 679.005 478.488Z"/><path d="M197.211 315.17C203.459 314.654 209.132 315.223 214.967 317.72C221.848 320.743 227.208 326.429 229.82 333.476C234.836 346.625 230.533 363.063 224.894 375.328C215.928 394.831 198.719 415.737 180.097 427.032C169.77 433.296 159.19 437.31 148.045 441.568C154.894 450.714 167.126 462.072 176.437 469.116C182.126 473.28 189.007 476.413 194.033 481.36C197.401 484.675 197.178 489.524 193.566 492.619C188.39 497.073 181.593 499.168 174.808 498.402C159.181 496.552 146.824 480.671 138.028 469.058C131.974 460.382 126.647 451.222 122.101 441.669C119.967 448.393 118.357 455.429 117.01 462.354C115.153 471.902 114.059 491.451 106.716 497.986C105.248 499.293 102.833 499.599 100.945 499.37C97.8247 498.991 95.4215 496.844 93.6879 494.351C87.7649 485.833 88.2922 473.375 89.8468 463.604C92.5717 446.478 98.9843 429.432 105.23 413.331C112.811 393.786 141.479 329.633 156.321 319.344C158.327 317.954 160.849 317.146 163.28 317.741C166.942 318.636 168.809 322.007 170.647 324.966C180.533 319.395 185.721 316.466 197.211 315.17ZM131.021 418.927C134.222 418.875 142.343 418.866 145.133 418.239C166.699 413.748 184.892 403.628 196.837 384.551C203.926 373.228 217.124 351.594 203.492 340.123C200.501 337.606 196.795 337.82 195.106 336.838C184.421 337.211 165.782 350.433 159.221 357.965C148.147 370.677 136.235 402.823 131.021 418.927Z"/><path d="M271.995 520.445C272.969 520.446 274.844 520.558 275.748 520.936C276.988 521.456 277.786 522.253 278.169 523.566C279.446 527.942 278.771 535.584 279.039 539.483C279.758 549.91 277.792 594.422 280.144 601.213C283.122 604.074 290.584 595.67 292.841 600.944C291.794 605.823 285.675 610.342 280.74 610.551C268.842 611.053 269.645 599.589 269.537 591.12C266.637 596.182 264.637 599.856 260.84 604.297C257.914 606.981 255.41 609.023 251.467 610.038C247.694 611.022 243.683 610.435 240.35 608.412C227.179 600.518 226.613 577.82 234.014 565.769C238.06 559.282 244.547 554.696 252.012 553.047C258.709 551.627 263.525 552.978 269.068 556.67C269.992 547.794 267.799 533.037 269.907 523.491C270.115 522.552 271.312 521.213 271.995 520.445ZM251.134 601.44C266.445 598.199 269.163 578.339 269.002 565.576C265.14 562.359 263.079 560.487 257.81 560.135C243.383 562.049 238.013 576.029 239.832 588.97C240.841 596.142 243.873 600.322 251.134 601.44Z"/><path d="M507.539 522.522C509.747 522.913 511.939 523.101 513.627 524.52C515.236 527.795 514.405 557.03 514.294 562.424C529.559 562.164 544.825 562.063 560.092 562.119C560.052 555.012 558.577 529.751 561.303 525.272C562.028 524.082 563.136 523.215 564.526 522.945C566.452 522.57 568.809 523.007 570.336 524.283C572.222 525.858 571.97 530.052 572.038 532.344C572.53 548.979 572.047 565.752 572.043 582.401C572.041 588.992 573.037 599.165 572.033 605.215C571.697 607.242 570.543 608.371 569.188 609.812C566.184 609.942 562.064 609.857 561.472 606.286C559.731 595.792 560.469 582.739 560.793 572.225C556.588 571.925 550.871 572.212 546.538 572.17C535.886 572.067 525.145 572.322 514.493 572.046C514.58 582.278 515.318 592.45 514.727 602.676C514.648 604.645 514.585 607.214 512.734 608.512C508.493 611.593 503.899 610.053 503.836 604.121C503.566 578.368 503.19 552.398 503.722 526.675C503.761 524.797 506.108 523.442 507.539 522.522Z"/><path d="M429.289 551.616C460.086 549.88 447.223 578.48 450.679 597.045C451.304 600.401 465.478 604.401 454.302 609.935C451.669 611.239 446.906 609.011 444.739 607.675C442.986 604.841 442.259 603.03 441.553 599.824C432.942 608.762 421.13 615.819 410.001 605.79C398.731 590.076 421.178 580.964 432.962 578.364C435.579 577.786 438.592 576.666 441.1 575.705C439.648 564.735 436.794 552.862 423.444 563.513C420.037 566.232 416.535 572.754 411.958 571.547C409.123 568.544 410.556 564.346 412.67 561.372C416.892 555.432 422.245 552.714 429.289 551.616ZM419.605 601.528C429.929 605.03 442.092 593.466 441.519 583.052L441.014 582.554C434.37 584.581 408.976 590.539 419.605 601.528Z"/><path d="M607.627 553.588C638.47 550.247 626.178 580.992 630.188 598.316C630.654 600.33 636.38 601.552 638.169 603.922C640.624 612.35 624.209 614.687 620.845 600.179L620.698 599.515C612.061 608.669 602.297 614.818 590.166 607.028C573.689 589.919 609.031 578.68 619.337 574.894C617.835 565.922 614.693 553.597 603.384 563.498C599.994 566.466 597.112 573.203 592.012 572.532C588.112 570.172 589.259 565.957 591.44 562.71C595.028 557.371 601.494 554.855 607.627 553.588ZM598.737 601.88C607.604 604.569 613.842 599.556 618.828 592.74C619.229 588.966 619.691 585.845 619.385 582.051L619.004 581.635C611.602 584.932 590.657 590.58 598.737 601.88Z"/><path d="M751.559 553.125C762.933 552.008 780.412 557.498 772.568 572.684C767.648 582.207 748.433 584.619 738.132 586.922C743.674 607.525 757.156 603.651 771.915 595.909L773.255 595.659C775.284 596.668 774.838 598.895 773.811 600.526C766.756 611.739 748.242 613.287 737.764 606.446C724.265 597.633 724.396 576.739 732.712 564.452C737.456 557.42 743.53 554.546 751.559 553.125ZM737.865 580.67C741.198 579.904 744.541 579.18 747.893 578.497C753.176 577.273 759.982 575.466 762.748 570.494C767.146 562.589 759.028 560.533 753.377 560.207C741.616 561.454 738.715 570.373 737.865 580.67Z"/><path d="M321.417 552.676C326.307 552.103 332.755 553.761 336.687 556.71C343.593 561.89 342.594 570.814 336.982 576.684C329.554 584.453 316.338 585.761 306.181 586.144C312.561 608.703 325.97 603.073 341.244 593.486C347.608 601.97 334.964 608.244 328.04 609.62C288.885 617.398 285.116 559.44 321.417 552.676ZM306.098 580.107C309.839 579.949 312.576 579.774 316.278 579.291C321.782 577.908 327.914 575.963 330.917 570.813C336.363 561.473 327.256 560.06 320.413 560.636C310.723 564.297 307.355 569.959 306.098 580.107Z"/><path d="M650.236 586.093C649.933 570.778 650.024 555.458 650.51 540.147C650.655 535.71 650.22 530.67 650.951 526.341C651.236 524.651 651.83 522.927 653.004 521.646C653.855 520.717 654.958 520.038 656.238 519.925C657.545 519.809 658.876 520.324 659.829 521.207C660.605 521.925 660.96 522.573 661.201 523.591C662.308 528.272 661.203 534.796 661.098 539.653C660.889 549.318 659.256 591.876 662.576 599.106C663.278 600.634 664.598 601.528 666.27 601.616C671.362 601.882 677.642 595.003 682.399 598.159C683.62 602.054 676.476 608.932 673.107 609.574C664.152 611.281 655.946 610.712 651.629 601.698C650.723 596.514 650.559 591.349 650.236 586.093Z"/><path d="M694.092 520.559C695.333 520.535 699.711 520.309 699.801 522.412C700.564 540.221 699.716 558.173 699.903 576.03C699.971 582.553 699.284 590.016 700.824 596.404C704.249 607.903 716.426 595.254 721.081 597.919C722.472 601.402 720.683 604.065 718.354 606.486C713.262 609.849 707.66 610.542 701.616 609.942C688.074 608.827 689.912 591.473 689.976 581.481C690.097 562.424 689.413 542.657 690.624 523.6C690.705 522.333 693.07 521.174 694.092 520.559Z"/><path d="M377.135 521.796C378.905 521.655 383.804 521.388 384.125 524.002C386.068 539.729 384.436 556.364 385.031 572.306C385.3 579.529 382.423 595.181 387.478 600.919C391.646 602.761 400.784 595.971 404.715 597.993L404.934 598.921C404.245 601.466 403.337 602.457 401.838 604.607C392.721 613.248 377.438 612.394 375.111 598.12C374.398 593.75 374.829 588.188 374.863 583.656L374.985 559.042C375.016 548.669 375.007 538.233 374.763 527.853C374.701 525.202 375.154 523.569 377.135 521.796Z"/></svg>